<?xml version="1.0" encoding="utf-8"?>
<!-- Generator: Adobe Illustrator 15.1.0, SVG Export Plug-In . SVG Version: 6.00 Build 0)  -->
<!DOCTYPE svg PUBLIC "-//W3C//DTD SVG 1.1//EN" "http://www.w3.org/Graphics/SVG/1.1/DTD/svg11.dtd">
<svg version="1.1" id="_x31_" xmlns="http://www.w3.org/2000/svg" xmlns:xlink="http://www.w3.org/1999/xlink" x="0px" y="0px"
	 width="242.595px" height="143.88px" viewBox="0 0 242.595 143.88" enable-background="new 0 0 242.595 143.88"
	 xml:space="preserve">
<g>
	<path fill-rule="evenodd" clip-rule="evenodd" fill="#9DB82C" d="M152.542,86.937l-3.589-10.98h-19.366l-3.838,10.98h-7.961
		l21.145-52.771h1.884l19.615,52.771H152.542L152.542,86.937z M139.537,47.811l-8.066,22.921h15.458L139.537,47.811z"/>
	<path fill-rule="evenodd" clip-rule="evenodd" fill="#9DB82C" d="M180.759,86.937h-14.854v-52.06
		c6.325-0.308,10.886-0.462,13.681-0.462c5.141,0,9.121,1.107,11.939,3.322c2.82,2.216,4.229,5.384,4.229,9.507
		c0,2.417-0.9,4.62-2.701,6.61c-1.8,1.991-3.79,3.234-5.97,3.731c4.122,0.996,7.124,2.642,9.009,4.941
		c1.884,2.298,2.825,5.424,2.825,9.381c0,4.572-1.676,8.221-5.029,10.945C190.538,85.575,186.161,86.937,180.759,86.937
		L180.759,86.937z M173.012,40.562v14.961c1.492,0.142,3.341,0.214,5.544,0.214c6.728,0,10.092-2.737,10.092-8.209
		c0-4.81-3.091-7.214-9.274-7.214C177.003,40.313,174.883,40.396,173.012,40.562L173.012,40.562z M173.012,61.031v19.865
		c2.439,0.237,4.312,0.355,5.614,0.355c4.454,0,7.705-0.834,9.755-2.504c2.048-1.671,3.074-4.33,3.074-7.979
		c0-3.387-0.978-5.886-2.933-7.498c-1.954-1.61-5.218-2.416-9.79-2.416L173.012,61.031z"/>
	<path fill-rule="evenodd" clip-rule="evenodd" fill="#9DB82C" d="M240.319,36.795l-2.381,6.077
		c-2.274-1.659-5.853-2.488-10.732-2.488c-4.573,0-8.239,1.967-10.999,5.899c-2.759,3.933-4.14,9.003-4.14,15.209
		c0,5.924,1.416,10.727,4.247,14.411s6.485,5.526,10.962,5.526c4.881,0,8.636-1.729,11.266-5.188l3.909,5.437
		c-4.122,4.099-9.43,6.147-15.921,6.147c-6.8,0-12.153-2.452-16.063-7.356c-3.908-4.904-5.863-11.372-5.863-19.403
		c0-7.77,2.084-14.227,6.254-19.367c4.17-5.141,9.56-7.711,16.17-7.711C232.69,33.987,237.121,34.924,240.319,36.795z"/>
	<g>
		<path fill-rule="evenodd" clip-rule="evenodd" fill="#B0C625" d="M118.922,107.171l0.721-1.806
			c0.369,0.269,0.83,0.492,1.381,0.672c0.549,0.18,1.042,0.27,1.477,0.27c0.771,0,1.391-0.209,1.859-0.627
			c0.468-0.419,0.702-0.953,0.702-1.601c0-0.484-0.13-0.933-0.392-1.349c-0.261-0.416-0.915-0.869-1.962-1.359l-1.166-0.54
			c-0.989-0.458-1.68-1.001-2.07-1.629c-0.393-0.628-0.589-1.384-0.589-2.267c0-1.074,0.383-1.962,1.147-2.669
			c0.764-0.707,1.745-1.06,2.945-1.06c1.601,0,2.716,0.259,3.341,0.775l-0.583,1.708c-0.263-0.19-0.666-0.374-1.206-0.549
			c-0.541-0.177-1.041-0.266-1.502-0.266c-0.673,0-1.201,0.19-1.588,0.57c-0.386,0.379-0.578,0.867-0.578,1.462
			c0,0.367,0.069,0.699,0.208,1c0.139,0.302,0.331,0.553,0.577,0.755c0.248,0.203,0.754,0.487,1.519,0.854l1.186,0.56
			c0.988,0.464,1.684,1.019,2.081,1.663c0.399,0.645,0.599,1.464,0.599,2.459c0,1.079-0.437,1.995-1.31,2.748
			c-0.874,0.752-2.042,1.128-3.506,1.128C120.93,108.074,119.833,107.773,118.922,107.171z"/>
		<path fill-rule="evenodd" clip-rule="evenodd" fill="#B0C625" d="M148.959,93.982l-0.663,1.679
			c-0.633-0.458-1.628-0.688-2.985-0.688c-1.271,0-2.293,0.543-3.059,1.629c-0.768,1.086-1.152,2.486-1.152,4.2
			c0,1.636,0.395,2.962,1.182,3.979c0.787,1.018,1.804,1.525,3.049,1.525c1.358,0,2.402-0.477,3.135-1.433l1.086,1.501
			c-1.146,1.133-2.622,1.698-4.429,1.698c-1.892,0-3.38-0.677-4.468-2.032c-1.088-1.354-1.631-3.14-1.631-5.357
			c0-2.146,0.58-3.929,1.739-5.348c1.16-1.42,2.659-2.13,4.498-2.13C146.837,93.207,148.07,93.465,148.959,93.982z"/>
		<polygon fill-rule="evenodd" clip-rule="evenodd" fill="#B0C625" points="170.326,107.829 170.326,100.881 163.999,100.881 
			163.999,107.829 162.023,107.829 162.023,93.452 163.999,93.452 163.999,99.213 170.326,99.213 170.326,93.452 172.302,93.452 
			172.302,107.829 		"/>
		<path fill-rule="evenodd" clip-rule="evenodd" fill="#B0C625" d="M185.069,100.518c0-2.08,0.525-3.821,1.576-5.221
			c1.052-1.399,2.471-2.1,4.257-2.1c2.01,0,3.551,0.645,4.62,1.933c1.07,1.289,1.607,3.084,1.607,5.386
			c0,2.363-0.537,4.212-1.611,5.55c-1.074,1.338-2.612,2.007-4.616,2.007c-1.826,0-3.255-0.707-4.286-2.12
			S185.069,102.729,185.069,100.518L185.069,100.518z M187.145,100.518c0,1.649,0.328,3.025,0.984,4.131
			c0.655,1.106,1.579,1.658,2.772,1.658c1.351,0,2.38-0.506,3.088-1.521c0.71-1.013,1.063-2.436,1.063-4.269
			c0-3.702-1.383-5.554-4.151-5.554c-1.226,0-2.159,0.497-2.799,1.492C187.464,97.45,187.145,98.804,187.145,100.518z"/>
		<path fill-rule="evenodd" clip-rule="evenodd" fill="#B0C625" d="M209.252,100.518c0-2.08,0.525-3.821,1.576-5.221
			s2.47-2.1,4.256-2.1c2.011,0,3.552,0.645,4.622,1.933c1.071,1.289,1.606,3.084,1.606,5.386c0,2.363-0.537,4.212-1.611,5.55
			c-1.074,1.338-2.613,2.007-4.617,2.007c-1.825,0-3.254-0.707-4.285-2.12C209.768,104.541,209.252,102.729,209.252,100.518
			L209.252,100.518z M211.329,100.518c0,1.649,0.327,3.025,0.983,4.131c0.655,1.106,1.58,1.658,2.772,1.658
			c1.352,0,2.382-0.506,3.09-1.521c0.709-1.013,1.063-2.436,1.063-4.269c0-3.702-1.384-5.554-4.152-5.554
			c-1.225,0-2.158,0.497-2.797,1.492C211.648,97.45,211.329,98.804,211.329,100.518z"/>
		<polygon fill-rule="evenodd" clip-rule="evenodd" fill="#B0C625" points="234.074,107.829 234.074,93.452 236.05,93.452 
			236.05,106.062 242.595,106.062 242.595,107.828 		"/>
	</g>
</g>
<g>
	<polygon fill-rule="evenodd" clip-rule="evenodd" fill="#5E681E" points="50.128,143.88 50.128,101.652 64.14,99.593 
		64.14,141.822 	"/>
	<polygon fill-rule="evenodd" clip-rule="evenodd" fill="#8BB733" points="79.268,103.224 50.128,107.492 50.128,94.311 
		79.268,90.042 	"/>
	<polygon fill-rule="evenodd" clip-rule="evenodd" fill="#D0D713" points="97.378,74.083 50.128,80.904 50.128,67.723 
		97.378,60.902 	"/>
	<polygon fill-rule="evenodd" clip-rule="evenodd" fill="#9DB82C" points="94.827,47.864 50.128,54.357 50.128,41.175 
		94.827,34.684 	"/>
	<polygon fill-rule="evenodd" clip-rule="evenodd" fill="#DBE070" points="72.436,24.899 50.128,28.015 50.128,14.834 
		72.436,11.717 	"/>
	<polygon fill-rule="evenodd" clip-rule="evenodd" fill="#CDD616" points="9.632,88.254 50.132,94.333 50.132,81.153 9.632,75.073 	
		"/>
	<polygon fill-rule="evenodd" clip-rule="evenodd" fill="#DDE175" points="0,60.349 50.132,67.58 50.132,54.4 0,47.168 	"/>
	<polygon fill-rule="evenodd" clip-rule="evenodd" fill="#CDD616" points="12.43,35.777 50.132,41.199 50.132,28.018 12.43,22.597 	
		"/>
	<polygon fill-rule="evenodd" clip-rule="evenodd" fill="#B1C226" points="36.94,13.181 50.132,15.021 50.132,1.84 36.94,0 	"/>
</g>
</svg>
